<?xml version="1.0" standalone="no"?>
<!DOCTYPE svg PUBLIC "-//W3C//DTD SVG 20010904//EN"
 "http://www.w3.org/TR/2001/REC-SVG-20010904/DTD/svg10.dtd">
<svg version="1.0" xmlns="http://www.w3.org/2000/svg"
 width="512.000000pt" height="768.000000pt" viewBox="0 0 512.000000 768.000000"
 preserveAspectRatio="xMidYMid meet">

<g transform="translate(0.000000,768.000000) scale(0.100000,-0.100000)"
fill="#000000" stroke="none">
<path d="M2349 4958 c-178 -114 -582 -369 -706 -446 -23 -15 -44 -36 -46 -47
-4 -16 -2 -1289 2 -1400 1 -27 11 -36 84 -80 186 -113 658 -411 787 -498 41
-28 79 -50 85 -50 5 0 100 58 210 130 156 101 561 355 733 460 l22 13 0 718 0
717 -102 65 c-57 35 -269 170 -473 300 -203 130 -375 239 -381 243 -6 3 -102
-53 -215 -125z m455 -240 c339 -214 500 -319 508 -332 4 -6 8 -293 8 -637 l0
-626 -62 -38 c-178 -109 -370 -230 -520 -327 -92 -59 -174 -108 -183 -108 -9
0 -98 53 -198 118 -100 65 -265 170 -365 233 -119 73 -187 122 -193 137 -5 13
-9 292 -9 638 l0 614 83 54 c459 297 665 426 681 426 5 0 117 -68 250 -152z"/>
<path d="M2257 4283 l-277 -185 2 -331 3 -330 280 -183 c154 -101 286 -183
292 -183 7 -1 130 79 274 176 242 163 261 178 243 190 -152 109 -237 164 -248
160 -7 -3 -68 -42 -136 -87 -68 -44 -129 -79 -137 -76 -8 3 -69 44 -137 91
l-123 84 -7 77 c-3 42 -6 114 -6 160 l0 83 126 86 c69 47 131 88 139 91 8 3
73 -33 146 -80 72 -47 136 -86 140 -86 10 0 247 159 254 171 7 10 -519 359
-538 358 -6 0 -137 -84 -290 -186z"/>
</g>
</svg>
